<svg width="272" height="49" viewBox="0 0 272 49" fill="none" xmlns="http://www.w3.org/2000/svg">
<path fill-rule="evenodd" clip-rule="evenodd" d="M154.024 16.22C154.024 15.13 154.354 14.95 155.444 14.96C156.454 14.96 157.504 14.96 158.514 14.96C159.474 14.96 159.754 15.24 159.764 16.21C159.774 18.01 159.764 19.81 159.764 21.65H165.364C165.364 21.44 165.364 21.23 165.364 21.16C165.364 19.58 165.364 17.69 165.404 16.12C165.434 15.14 165.664 14.95 166.914 14.96C167.934 14.96 168.954 14.95 169.984 14.96C170.784 14.96 171.094 15.27 171.114 16.08C171.124 16.78 171.114 17.48 171.114 18.17C171.114 22.41 171.114 26.64 171.114 30.88C171.114 32.18 170.884 32.4 169.584 32.4C168.614 32.4 167.634 32.4 166.664 32.4C166.334 32.4 166.014 32.35 165.754 32.13C165.474 31.91 165.414 31.59 165.404 31.26C165.384 30.3 165.384 29.35 165.374 28.39C165.374 27.65 165.374 26.9 165.374 26.12H159.784V27.34C159.784 28.61 159.784 29.87 159.784 31.14C159.784 32.07 159.454 32.41 158.534 32.41C157.524 32.41 156.524 32.38 155.514 32.41C154.864 32.42 154.044 32.25 154.044 31.17V16.24L154.024 16.22Z" fill="#462563"/>
<path fill-rule="evenodd" clip-rule="evenodd" d="M244.704 15.06C246.024 15.32 247.314 15.7 248.534 16.28C248.634 16.33 248.734 16.38 248.834 16.44C249.324 16.74 249.444 17.08 249.204 17.59C248.774 18.5 248.334 19.4 247.864 20.29C247.574 20.85 247.164 20.96 246.564 20.65C245.644 20.17 244.724 19.7 243.724 19.42C243.004 19.22 242.264 19.11 241.524 19.09C241.274 19.09 241.034 19.11 240.804 19.19C240.464 19.3 240.284 19.59 240.244 19.97C240.214 20.32 240.394 20.53 240.694 20.64C241.164 20.82 241.634 20.97 242.114 21.12C243.494 21.57 244.924 21.9 246.264 22.47C246.474 22.56 246.674 22.66 246.874 22.76C249.014 23.91 249.654 25.71 249.364 27.89C249.134 29.66 248.124 30.88 246.534 31.63C245.544 32.09 244.514 32.42 243.424 32.51C243.354 32.51 240.664 32.59 240.414 32.5C238.634 32.25 236.954 31.7 235.354 30.9C234.934 30.69 234.504 30.5 234.084 30.29C233.534 30.01 233.404 29.69 233.664 29.15C234.094 28.28 234.524 27.41 234.994 26.56C235.344 25.91 235.644 25.82 236.294 26.18C237.404 26.78 238.494 27.41 239.714 27.78C240.544 28.04 241.384 28.19 242.244 28.21C243.074 28.23 243.474 27.99 243.574 27.44C243.674 26.9 243.374 26.52 242.584 26.28C241.364 25.91 240.124 25.58 238.904 25.21C238.454 25.08 238.024 24.9 237.584 24.73C234.354 23.55 233.894 20.26 235.124 17.94C235.584 17.07 236.264 16.42 237.124 15.95C238.194 15.37 239.064 15.14 240.254 14.97C240.834 14.87 243.594 14.88 244.744 15.06" fill="#462563"/>
<path fill-rule="evenodd" clip-rule="evenodd" d="M221.034 25.8C221.034 26.56 221.034 27.32 221.034 28.07C221.894 28.07 222.804 28.07 223.624 28.07C225.754 28.07 226.474 28.07 228.414 28.07C228.574 28.07 229.084 28.07 229.284 28.07C229.864 28.07 230.244 28.48 230.234 29.03C230.254 29.83 230.234 30.41 230.234 31.19C230.234 32.02 229.864 32.39 229.044 32.4C224.854 32.4 220.664 32.4 216.484 32.4C215.624 32.4 215.344 32.11 215.334 31.25C215.284 28.04 215.294 24.82 215.314 21.61C215.324 19.94 215.334 18.27 215.344 16.6C215.344 15.26 215.634 14.97 216.974 14.97C220.874 14.97 224.764 14.97 228.664 14.97C228.814 14.97 228.954 14.97 229.104 14.98C229.714 15.04 230.054 15.23 230.094 15.85V18.24C230.094 18.95 229.754 19.22 229.044 19.27C227.534 19.39 226.024 19.33 224.514 19.33C223.624 19.33 222.764 19.33 221.834 19.33C221.574 19.33 221.494 19.32 221.044 19.33C221.044 20.01 221.024 20.81 221.024 21.49C221.284 21.49 221.874 21.49 222.044 21.49C224.084 21.49 225.774 21.49 227.814 21.49C228.654 21.49 229.124 21.6 229.114 22.87C229.144 23.5 229.134 24.12 229.114 24.75C229.094 25.57 228.744 25.8 228.004 25.8C227.644 25.8 227.354 25.82 226.994 25.8C225.064 25.8 223.824 25.8 221.894 25.8C221.704 25.8 221.434 25.8 221.024 25.8" fill="#462563"/>
<path fill-rule="evenodd" clip-rule="evenodd" d="M203.204 26.66C203.204 27.8 203.204 28.88 203.204 29.96C203.204 30.42 203.174 30.87 203.114 31.32C203.014 32.08 202.654 32.4 201.884 32.4C200.874 32.4 199.874 32.4 198.864 32.4C197.874 32.4 197.524 32.04 197.524 31.04C197.514 26.14 197.494 21.24 197.484 16.33C197.484 15.54 198.054 14.96 198.864 14.96C201.254 14.96 203.634 14.96 206.024 14.96C207.354 14.96 209.034 14.98 210.364 14.96C211.394 14.96 211.504 15.85 211.514 16.39C211.534 17.25 211.524 17.54 211.514 18.4C211.504 18.95 211.184 19.25 210.594 19.24C209.054 19.23 203.844 19.23 203.294 19.23V22.35C203.564 22.35 203.864 22.35 204.024 22.35C205.854 22.35 207.444 22.35 209.274 22.35C209.514 22.35 209.764 22.35 210.004 22.36C210.694 22.4 210.904 22.58 210.974 23.26C211.064 24.1 211.004 24.95 210.994 25.79C210.994 26.33 210.664 26.6 210.114 26.64C209.794 26.66 209.464 26.64 209.144 26.64C207.194 26.64 205.254 26.64 203.224 26.64" fill="#462563"/>
<path fill-rule="evenodd" clip-rule="evenodd" d="M265.204 30.47C264.004 30.37 262.884 30.04 261.904 29.38C260.924 28.72 260.374 27.77 260.294 26.58C260.274 26.19 260.294 25.8 260.304 25.41C260.314 25.13 260.394 24.7 260.724 24.65C261.064 24.59 261.264 24.98 261.514 25.19C262.084 25.65 262.724 25.93 263.554 25.9C262.904 24.16 262.384 22.14 261.614 20.46C261.004 21.87 259.394 26.31 257.574 31.29C257.284 32.03 256.764 32.35 256.024 32.39C255.064 32.44 254.114 32.41 253.154 32.39C252.974 32.39 252.794 32.35 252.624 32.3C252.074 32.15 251.854 31.79 251.964 31.24C252.014 31 252.104 30.78 252.194 30.55C254.234 25.71 256.284 20.87 258.314 16.02C258.634 15.27 259.134 14.91 259.954 14.93C261.174 14.96 262.384 14.96 263.604 14.93C264.354 14.91 264.804 15.24 265.084 15.93C267.074 20.83 269.084 25.72 271.074 30.62C271.564 31.83 271.204 32.36 269.894 32.38C268.824 32.39 267.884 32.39 266.814 32.39C265.974 32.39 265.754 32.01 265.514 31.34C265.444 31.14 265.474 31.24 265.404 31.04C265.334 30.86 265.274 30.68 265.194 30.45" fill="#462563"/>
<path fill-rule="evenodd" clip-rule="evenodd" d="M187.904 30.47C186.704 30.37 185.584 30.04 184.604 29.38C183.624 28.72 183.074 27.77 182.994 26.58C182.974 26.19 182.994 25.8 183.004 25.41C183.014 25.13 183.094 24.7 183.424 24.65C183.764 24.59 183.964 24.98 184.214 25.19C184.784 25.65 185.424 25.93 186.254 25.9C185.604 24.16 185.084 22.14 184.314 20.46C183.704 21.87 182.094 26.31 180.274 31.29C179.984 32.03 179.464 32.35 178.724 32.39C177.764 32.44 176.814 32.41 175.854 32.39C175.674 32.39 175.494 32.35 175.324 32.3C174.774 32.15 174.554 31.79 174.664 31.24C174.714 31 174.804 30.78 174.894 30.55C176.934 25.71 178.984 20.87 181.014 16.02C181.334 15.27 181.834 14.91 182.654 14.93C183.874 14.96 185.094 14.96 186.304 14.93C187.064 14.91 187.504 15.24 187.784 15.93C189.774 20.83 191.784 25.72 193.774 30.62C194.264 31.83 193.904 32.36 192.594 32.38C191.524 32.39 190.594 32.39 189.514 32.39C188.674 32.39 188.454 32.01 188.214 31.34C188.144 31.14 188.174 31.24 188.104 31.04C188.034 30.86 187.974 30.68 187.894 30.45" fill="#462563"/>
<path d="M61.8939 23.12H58.9839C58.4439 23.12 58.0039 23.56 58.0039 24.11L58.0839 27.41C57.1639 27.83 56.3939 28.04 55.7239 28.04C54.9739 28.04 54.2839 27.85 53.6739 27.48C53.0639 27.11 52.5739 26.58 52.2239 25.93C51.8739 25.27 51.6939 24.51 51.6939 23.7C51.6939 22.89 51.8739 22.16 52.2139 21.5C52.5539 20.85 53.0339 20.33 53.6439 19.96C54.2439 19.59 54.9339 19.4 55.6839 19.4C56.3839 19.4 57.1139 19.56 57.8539 19.88C58.3839 20.11 58.8739 20.4 59.3139 20.75C59.4939 20.89 59.7039 20.96 59.9239 20.96C60.2139 20.96 60.4939 20.83 60.6839 20.6L62.6139 18.27C62.7839 18.06 62.8739 17.79 62.8339 17.53C62.8039 17.26 62.6639 17.01 62.4439 16.86C61.6439 16.26 60.7039 15.76 59.6639 15.38C58.3539 14.9 57.0139 14.66 55.7039 14.66C53.8839 14.66 52.2139 15.05 50.7339 15.83C49.2539 16.6 48.0839 17.69 47.2439 19.07C46.4039 20.44 45.9839 22 45.9839 23.7C45.9839 25.4 46.3939 26.98 47.2039 28.36C48.0139 29.73 49.1439 30.82 50.5639 31.61C51.9839 32.39 53.5939 32.79 55.3539 32.79C56.5739 32.79 57.8939 32.57 59.2739 32.15C60.4839 31.78 61.5339 31.31 62.4239 30.74C62.7039 30.56 62.8739 30.25 62.8739 29.91V24.11C62.8739 23.57 62.4339 23.12 61.8939 23.12Z" fill="#462563"/>
<path d="M79.3239 26.82L79.2039 26.9V26.87C80.1639 26.31 80.8839 25.57 81.3939 24.62C81.9039 23.67 82.1639 22.54 82.1639 21.26C82.1639 19.24 81.5239 17.72 80.1939 16.6C78.8939 15.52 77.0639 14.97 74.7439 14.97H67.5539C67.0139 14.97 66.5739 15.41 66.5739 15.96V31.47C66.5739 32.01 67.0139 32.45 67.5539 32.45H71.1639C71.7039 32.45 72.1439 32.01 72.1439 31.46L72.0139 27.89L74.3039 27.82L76.3139 31.91C76.4839 32.25 76.8239 32.46 77.1939 32.46H81.1839C81.5439 32.46 81.8739 32.27 82.0439 31.95C82.2139 31.64 82.2139 31.26 82.0239 30.95L79.3039 26.83L79.3239 26.82ZM72.1539 19.39H74.7439C75.4239 19.39 75.9439 19.56 76.2939 19.9C76.6539 20.24 76.8239 20.73 76.8239 21.4C76.8239 22.07 76.6439 22.59 76.2939 22.93C75.9339 23.28 75.4139 23.45 74.7339 23.45L72.1539 23.58V19.38V19.39Z" fill="#462563"/>
<path d="M101.114 14.97H97.5039C96.9639 14.97 96.5239 15.41 96.5239 15.96V25.17C96.5239 26.06 96.2839 26.77 95.8239 27.28C95.3639 27.79 94.7839 28.04 94.0539 28.04C93.3239 28.04 92.7039 27.79 92.2039 27.26C91.7139 26.74 91.4639 26.03 91.4639 25.16V15.95C91.4639 15.41 91.0239 14.96 90.4839 14.96H86.8639C86.3239 14.96 85.8839 15.4 85.8839 15.95V25.16C85.8839 26.68 86.2239 28.03 86.9039 29.18C87.5839 30.32 88.5539 31.22 89.7839 31.84C91.0139 32.46 92.4439 32.78 94.0639 32.78C95.6839 32.78 97.0839 32.47 98.2939 31.84C99.5239 31.21 100.454 30.34 101.124 29.17C101.784 28.03 102.114 26.68 102.114 25.16V15.95C102.114 15.41 101.674 14.96 101.134 14.96L101.114 14.97Z" fill="#462563"/>
<path d="M113.844 14.97H106.874C106.334 14.97 105.884 15.41 105.884 15.96V31.47C105.884 32.01 106.324 32.45 106.874 32.45H110.484C111.024 32.45 111.464 32.01 111.464 31.46L111.334 27.92L113.844 27.9C116.094 27.9 117.864 27.31 119.114 26.16C120.384 24.98 121.004 23.38 121.004 21.27C121.004 19.16 120.384 17.73 119.114 16.62C117.874 15.53 116.094 14.98 113.854 14.98L113.844 14.97ZM111.474 23.59V19.39H113.604C114.284 19.39 114.804 19.56 115.154 19.9C115.514 20.24 115.684 20.73 115.684 21.4C115.684 22.07 115.504 22.59 115.154 22.93C114.804 23.28 114.274 23.45 113.594 23.45L111.474 23.58V23.59Z" fill="#462563"/>
<path d="M141.594 19.05C140.774 17.68 139.624 16.6 138.184 15.82C136.744 15.05 135.104 14.65 133.334 14.65C131.564 14.65 129.904 15.04 128.464 15.82C127.024 16.6 125.884 17.68 125.064 19.05C124.244 20.42 123.834 21.97 123.834 23.67C123.834 25.37 124.244 26.95 125.064 28.34C125.884 29.72 127.024 30.82 128.464 31.6C129.904 32.38 131.534 32.78 133.334 32.78C135.134 32.78 136.744 32.38 138.184 31.6C139.634 30.81 140.784 29.71 141.594 28.34C142.414 26.96 142.824 25.39 142.824 23.67C142.824 21.95 142.404 20.42 141.594 19.05ZM136.624 25.92C136.294 26.57 135.834 27.1 135.264 27.48C134.694 27.86 134.064 28.05 133.404 28.05C132.744 28.05 132.074 27.86 131.494 27.48C130.904 27.1 130.424 26.57 130.074 25.91C129.724 25.25 129.544 24.5 129.544 23.7C129.544 22.9 129.724 22.16 130.074 21.5C130.424 20.85 130.904 20.33 131.494 19.95C132.074 19.58 132.724 19.39 133.404 19.39C134.084 19.39 134.714 19.58 135.274 19.95C135.844 20.32 136.294 20.84 136.624 21.49C136.954 22.15 137.124 22.89 137.124 23.69C137.124 24.49 136.954 25.26 136.624 25.92V25.92Z" fill="#462563"/>
<g opacity="0.2">
<path d="M7.63385 44.15C7.63385 44.15 7.84385 44.33 8.24385 44.62C8.44385 44.77 8.69385 44.94 8.98385 45.12C9.27385 45.31 9.62385 45.51 9.99385 45.73C10.3739 45.94 10.7939 46.16 11.2539 46.37C11.7139 46.58 12.2139 46.79 12.7339 46.98C13.2538 47.18 13.8139 47.34 14.3839 47.5C14.6739 47.57 14.9539 47.65 15.2539 47.7L15.6938 47.79L16.1339 47.86C16.4239 47.92 16.7239 47.94 17.0139 47.98C17.3039 48.02 17.6039 48.03 17.8939 48.06C18.1839 48.07 18.4639 48.08 18.7539 48.1C19.0339 48.1 19.3139 48.1 19.5839 48.1C19.8539 48.09 20.1138 48.07 20.3738 48.06C20.6338 48.04 20.8838 48.02 21.1238 48C21.3738 47.98 21.5939 47.94 21.8239 47.91C22.0539 47.88 22.2639 47.85 22.4739 47.81C22.8839 47.73 23.2639 47.67 23.5839 47.59C23.9139 47.52 24.1939 47.46 24.4239 47.39C24.8839 47.27 25.1439 47.2 25.1439 47.2C25.1439 47.2 24.8938 47.28 24.4538 47.43C24.2338 47.51 23.9539 47.58 23.6339 47.66C23.4739 47.7 23.3038 47.75 23.1238 47.79C22.9338 47.83 22.7438 47.87 22.5438 47.91C22.3438 47.96 22.1239 47.99 21.9039 48.03C21.6739 48.06 21.4538 48.11 21.2038 48.13C20.9538 48.16 20.7138 48.19 20.4538 48.21C20.1938 48.23 19.9239 48.24 19.6539 48.26C19.3739 48.26 19.0939 48.26 18.8139 48.27C18.5239 48.27 18.2339 48.25 17.9439 48.24C17.6439 48.21 17.3539 48.2 17.0539 48.17C16.7539 48.13 16.4539 48.11 16.1539 48.05L15.7038 47.97L15.2539 47.88C14.9539 47.82 14.6639 47.74 14.3739 47.67C13.7939 47.51 13.2339 47.33 12.6939 47.13C12.1639 46.94 11.6639 46.71 11.2039 46.49C10.7439 46.27 10.3239 46.03 9.94385 45.81C9.19385 45.36 8.62385 44.94 8.24385 44.64C7.86385 44.34 7.67385 44.15 7.67385 44.15H7.63385Z" fill="url(#paint0_linear_3_3856)"/>
</g>
<path opacity="0.6" d="M6.68384 18.21C6.93384 17.21 7.24384 16.18 7.59384 15.1C7.43384 15.58 7.27384 16.07 7.12384 16.55C6.95384 17.1 6.81384 17.65 6.68384 18.21Z" fill="url(#paint1_linear_3_3856)"/>
<path d="M37.5239 28.22C37.3339 29.2 37.0239 30.14 36.6739 31.06C35.6839 33.63 34.1239 35.75 31.9139 37.35C31.7539 37.46 31.5939 37.58 31.4339 37.69C29.0839 39.25 26.4939 40.07 23.6939 40.27C23.6039 40.27 23.5139 40.27 23.4239 40.28C23.2839 40.28 23.1339 40.3 22.9939 40.31C21.8039 40.37 20.6139 40.28 19.4339 40.06C18.5439 39.91 17.6739 39.69 16.8139 39.4C14.8039 38.71 13.0139 37.64 11.4139 36.24C10.0739 35.07 8.92385 33.75 7.97385 32.24C7.35385 31.26 6.94385 30.2 6.62385 29.1C6.11385 27.53 5.84385 25.84 5.87385 24.04C5.90385 22.11 6.19385 20.21 6.70385 18.2C6.83385 17.64 6.97385 17.09 7.14385 16.54C7.29385 16.06 7.45385 15.57 7.61385 15.09C7.89385 14.22 8.19385 13.36 8.50385 12.51C8.75385 11.82 9.09385 11.16 9.41385 10.5C11.2039 6.82 13.4739 3.42 15.9639 0.16C16.0039 0.11 16.0539 0.05 16.0939 0C15.9839 0.04 15.8939 0.1 15.8239 0.17C14.0339 1.73 12.3339 3.38 10.7239 5.13C9.50385 6.45 8.34385 7.82 7.27385 9.27C6.37385 10.49 5.50385 11.74 4.70385 13.03C3.01385 15.73 1.68385 18.59 0.843854 21.67C0.393854 23.32 0.113854 24.99 0.0338535 26.69C-0.0161465 27.64 -0.00614647 28.59 0.0338535 29.54C0.0938535 31.43 0.423854 33.28 1.02385 35.07C1.82385 37.46 3.04385 39.61 4.61385 41.57C6.21385 43.55 8.10385 45.18 10.3739 46.36C12.4639 47.45 14.6939 48.09 17.0439 48.34C18.8939 48.54 20.7339 48.48 22.5539 48.07C25.6239 47.38 28.3439 45.96 30.7539 43.95C33.3839 41.75 35.1439 38.95 36.2939 35.74C36.7739 34.41 37.0839 33.04 37.3139 31.66C37.4939 30.55 37.5439 29.44 37.5539 28.32C37.5539 28.29 37.5439 28.26 37.5339 28.23L37.5239 28.22Z" fill="#462563"/>
<g opacity="0.2">
<path d="M14.5638 35.61C14.5638 35.61 14.8038 35.78 15.2638 36.03C15.4938 36.16 15.7738 36.3 16.1038 36.45C16.4338 36.6 16.8138 36.75 17.2338 36.92C17.6538 37.07 18.1138 37.22 18.6138 37.35C19.1138 37.48 19.6438 37.59 20.2038 37.66C20.7538 37.75 21.3338 37.79 21.9238 37.8C22.2138 37.8 22.5138 37.8 22.8138 37.78L23.2638 37.75L23.7138 37.7C24.0138 37.68 24.3038 37.62 24.6038 37.58C24.8938 37.53 25.1838 37.46 25.4738 37.4C25.7538 37.33 26.0338 37.25 26.3138 37.17C26.5838 37.08 26.8538 36.99 27.1138 36.9C27.3738 36.8 27.6238 36.69 27.8738 36.59C28.1238 36.48 28.3538 36.37 28.5838 36.26C28.8238 36.16 29.0338 36.03 29.2438 35.92C29.4538 35.81 29.6638 35.7 29.8438 35.58C30.2238 35.35 30.5738 35.14 30.8638 34.94C31.1638 34.74 31.4238 34.57 31.6238 34.41C32.0438 34.1 32.2738 33.93 32.2738 33.93C32.2738 33.93 32.0538 34.12 31.6538 34.45C31.4638 34.62 31.2038 34.81 30.9138 35.02C30.7638 35.13 30.6238 35.25 30.4538 35.36C30.2838 35.47 30.1038 35.59 29.9138 35.71C29.7338 35.84 29.5238 35.95 29.3138 36.07C29.1038 36.19 28.8938 36.32 28.6538 36.43C28.4238 36.54 28.1838 36.67 27.9438 36.78C27.6938 36.89 27.4338 36.99 27.1738 37.1C26.9038 37.19 26.6338 37.29 26.3538 37.39C26.0738 37.47 25.7838 37.56 25.5038 37.63C25.2138 37.69 24.9138 37.77 24.6238 37.82C24.3238 37.87 24.0238 37.93 23.7238 37.95L23.2638 38L22.8038 38.02C22.5038 38.04 22.1938 38.02 21.8938 38.02C21.2938 38 20.7038 37.95 20.1338 37.86C19.5638 37.78 19.0338 37.65 18.5338 37.5C18.0338 37.36 17.5738 37.19 17.1538 37.02C16.3138 36.68 15.6638 36.31 15.2138 36.04C14.7738 35.77 14.5438 35.58 14.5438 35.58L14.5638 35.61Z" fill="url(#paint2_linear_3_3856)"/>
</g>
<path d="M6.61388 29.11C6.10388 27.54 5.83388 25.85 5.86388 24.05C5.89388 22.12 6.18388 20.22 6.69388 18.21C6.82388 17.65 6.96388 17.1 7.13388 16.55C7.28388 16.07 7.44388 15.58 7.60388 15.1C7.65388 14.94 7.71388 14.77 7.76388 14.61C5.23388 17.69 3.35388 22.02 3.47388 26.32C3.74388 35.79 11.6339 43.25 21.1039 42.99C26.8139 42.83 31.2839 39.64 34.2839 35.26C33.5639 36.05 32.7739 36.74 31.9139 37.35C31.7539 37.46 31.5939 37.58 31.4339 37.69C29.0839 39.25 26.4939 40.07 23.6939 40.27C23.6039 40.27 23.5139 40.27 23.4239 40.28C23.2839 40.28 23.1339 40.3 22.9939 40.31C21.8039 40.37 20.6139 40.28 19.4339 40.06C18.5439 39.91 17.6739 39.69 16.8139 39.4C14.8039 38.71 13.0139 37.64 11.4139 36.24C10.0739 35.07 8.92388 33.75 7.97388 32.24" fill="url(#paint3_linear_3_3856)"/>
<path d="M31.6538 22.93C31.5638 23.41 31.4538 23.89 31.3138 24.36C31.6338 23.37 31.8038 22.35 31.8438 21.29C31.8138 21.84 31.7438 22.39 31.6438 22.93H31.6538Z" fill="url(#paint4_linear_3_3856)"/>
<path d="M31.3238 24.36C31.1438 24.9 30.9238 25.43 30.6538 25.94C30.3238 26.56 29.9538 27.13 29.5538 27.66C30.0138 27.08 30.4238 26.46 30.7638 25.79C30.9938 25.33 31.1838 24.85 31.3238 24.36V24.36Z" fill="url(#paint5_linear_3_3856)"/>
<path d="M36.7838 21.62C36.5738 19.95 36.1238 18.34 35.4938 16.78C34.4238 14.13 32.9538 11.72 31.2238 9.46C29.7538 7.55 28.1438 5.77 26.3938 4.11C25.6738 3.43 24.9438 2.75 24.1238 2.18C24.1138 2.18 24.0938 2.17 24.0338 2.14C24.1138 2.25 24.1738 2.32 24.2238 2.4C24.4838 2.74 24.7338 3.08 24.9838 3.42C25.9538 4.75 26.8738 6.1 27.7238 7.52C29.0938 9.82 30.2438 12.22 31.0138 14.79C31.4638 16.28 31.7538 17.81 31.8538 19.37C31.8938 20.02 31.8938 20.66 31.8538 21.31C31.8138 22.36 31.6438 23.39 31.3238 24.38C31.1738 24.87 30.9938 25.35 30.7638 25.81C30.4238 26.48 30.0138 27.1 29.5538 27.68C24.1738 34.79 13.0138 33.83 8.36383 26.19C8.36383 26.19 8.36383 26.19 8.36383 26.2C8.59383 27.05 8.79383 27.92 9.08383 28.75C10.0138 31.42 11.6938 33.55 13.9338 35.26C15.7838 36.66 17.8338 37.63 20.1238 38.01C22.4138 38.39 24.6638 38.21 26.8738 37.52C31.2138 36.15 34.1438 33.22 35.9138 29.1C36.9438 26.71 37.1238 24.19 36.7938 21.63L36.7838 21.62Z" fill="url(#paint6_linear_3_3856)"/>
<path opacity="0.6" d="M6.79382 18.13C7.04382 17.12 7.35382 16.08 7.70382 14.99C7.54382 15.48 7.38382 15.96 7.23382 16.45C7.06382 17 6.92382 17.56 6.79382 18.12V18.13Z" fill="url(#paint7_linear_3_3856)"/>
<g opacity="0.2">
<path d="M14.7338 35.68C14.7338 35.68 14.9838 35.85 15.4438 36.1C15.6738 36.23 15.9538 36.37 16.2938 36.52C16.6238 36.67 17.0138 36.83 17.4338 36.99C17.8638 37.14 18.3238 37.3 18.8238 37.42C19.3238 37.55 19.8638 37.66 20.4238 37.74C20.9838 37.83 21.5638 37.87 22.1638 37.88C22.4638 37.88 22.7638 37.88 23.0638 37.86L23.5138 37.83L23.9638 37.78C24.2638 37.76 24.5638 37.7 24.8538 37.66C25.1538 37.61 25.4438 37.54 25.7338 37.48C26.0238 37.4 26.3038 37.33 26.5838 37.25C26.8538 37.16 27.1338 37.06 27.3938 36.97C27.6538 36.86 27.9138 36.76 28.1638 36.66C28.4138 36.55 28.6538 36.44 28.8838 36.33C29.1238 36.23 29.3338 36.1 29.5538 35.99C29.7638 35.88 29.9738 35.77 30.1638 35.65C30.5438 35.42 30.9038 35.21 31.1938 35C31.4938 34.8 31.7638 34.62 31.9638 34.46C32.3838 34.15 32.6238 33.97 32.6238 33.97C32.6238 33.97 32.3938 34.16 32.0038 34.5C31.8038 34.67 31.5538 34.86 31.2638 35.08C31.1138 35.19 30.9638 35.31 30.7938 35.42C30.6238 35.53 30.4438 35.65 30.2538 35.77C30.0638 35.9 29.8638 36.01 29.6538 36.13C29.4438 36.25 29.2338 36.39 28.9938 36.5C28.7638 36.62 28.5238 36.74 28.2738 36.86C28.0238 36.97 27.7638 37.08 27.5038 37.19C27.2338 37.29 26.9538 37.38 26.6838 37.48C26.4038 37.56 26.1138 37.65 25.8238 37.73C25.5238 37.79 25.2338 37.87 24.9338 37.92C24.6338 37.97 24.3338 38.03 24.0238 38.06L23.5638 38.11L23.1038 38.13C22.7938 38.15 22.4938 38.13 22.1838 38.13C21.5738 38.11 20.9838 38.06 20.4138 37.97C19.8438 37.89 19.3038 37.75 18.7938 37.61C18.2838 37.47 17.8238 37.3 17.3938 37.13C16.5438 36.79 15.8838 36.42 15.4438 36.14C14.9938 35.86 14.7638 35.67 14.7638 35.67L14.7338 35.68Z" fill="url(#paint8_linear_3_3856)"/>
</g>
<path d="M20.9538 34.06C28.8938 34.06 44.0838 24.64 24.2938 2.46001C24.2938 2.46001 24.5538 2.80001 24.9838 3.41001C25.9538 4.74001 26.8738 6.10001 27.7238 7.51001C29.0938 9.81001 30.2438 12.21 31.0138 14.78C31.4638 16.27 31.7538 17.8 31.8538 19.36C31.8938 20.01 31.8938 20.65 31.8538 21.3C31.8138 22.35 31.6438 23.38 31.3238 24.37C31.1738 24.86 30.9938 25.34 30.7638 25.8C30.4238 26.47 30.0138 27.09 29.5538 27.67C24.1738 34.78 13.0138 33.82 8.36383 26.18C8.36383 26.18 8.36383 26.18 8.36383 26.19C8.91383 27.12 13.2738 34.06 20.9638 34.06H20.9538Z" fill="url(#paint9_linear_3_3856)"/>
<path d="M20.9538 34.06C28.8938 34.06 44.0838 24.64 24.2938 2.46001C24.2938 2.46001 24.5538 2.80001 24.9838 3.41001C25.9538 4.74001 26.8738 6.10001 27.7238 7.51001C29.0938 9.81001 30.2438 12.21 31.0138 14.78C31.4638 16.27 31.7538 17.8 31.8538 19.36C31.8938 20.01 31.8938 20.65 31.8538 21.3C31.8138 22.35 31.6438 23.38 31.3238 24.37C31.1738 24.86 30.9938 25.34 30.7638 25.8C30.4238 26.47 30.0138 27.09 29.5538 27.67C24.1738 34.78 13.0138 33.82 8.36383 26.18C8.36383 26.18 8.36383 26.18 8.36383 26.19C8.91383 27.12 13.2738 34.06 20.9638 34.06H20.9538Z" fill="#93C01F"/>
<defs>
<linearGradient id="paint0_linear_3_3856" x1="10.7898" y1="48.6435" x2="21.5586" y2="41.4083" gradientUnits="userSpaceOnUse">
<stop stop-color="white" stop-opacity="0.7"/>
<stop offset="0.42" stop-color="white" stop-opacity="0.61"/>
<stop offset="1" stop-color="white" stop-opacity="0.5"/>
</linearGradient>
<linearGradient id="paint1_linear_3_3856" x1="3.46384" y1="16.66" x2="34.2838" y2="16.66" gradientUnits="userSpaceOnUse">
<stop offset="0.17" stop-color="white" stop-opacity="0"/>
<stop offset="0.45" stop-color="#C3A5CC" stop-opacity="0.41"/>
<stop offset="0.77" stop-color="#844796" stop-opacity="0.83"/>
<stop offset="0.92" stop-color="#6C2382"/>
</linearGradient>
<linearGradient id="paint2_linear_3_3856" x1="18.6238" y1="39.74" x2="28.1238" y2="29.9" gradientUnits="userSpaceOnUse">
<stop stop-color="white" stop-opacity="0.7"/>
<stop offset="0.42" stop-color="white" stop-opacity="0.61"/>
<stop offset="1" stop-color="white" stop-opacity="0.5"/>
</linearGradient>
<linearGradient id="paint3_linear_3_3856" x1="3.46388" y1="28.81" x2="34.2839" y2="28.81" gradientUnits="userSpaceOnUse">
<stop offset="0.19" stop-color="white" stop-opacity="0"/>
<stop offset="0.46" stop-color="#C6A6CC" stop-opacity="0.4"/>
<stop offset="0.77" stop-color="#8A4796" stop-opacity="0.83"/>
<stop offset="0.92" stop-color="#732281"/>
</linearGradient>
<linearGradient id="paint4_linear_3_3856" x1="31.3238" y1="22.83" x2="31.8538" y2="22.83" gradientUnits="userSpaceOnUse">
<stop offset="0.11" stop-color="#0A8F3B"/>
<stop offset="0.46" stop-color="#64A72F"/>
<stop offset="0.59" stop-color="#69A92F" stop-opacity="0.99"/>
<stop offset="0.7" stop-color="#7AB131" stop-opacity="0.96"/>
<stop offset="0.81" stop-color="#96BD34" stop-opacity="0.91"/>
<stop offset="0.91" stop-color="#BECF39" stop-opacity="0.84"/>
<stop offset="0.95" stop-color="#D5DA3C" stop-opacity="0.8"/>
</linearGradient>
<linearGradient id="paint5_linear_3_3856" x1="21.0138" y1="35.77" x2="38.9038" y2="17.24" gradientUnits="userSpaceOnUse">
<stop offset="0.11" stop-color="#0A8F3B"/>
<stop offset="0.46" stop-color="#64A72F"/>
<stop offset="0.59" stop-color="#69A92F" stop-opacity="0.99"/>
<stop offset="0.7" stop-color="#7AB131" stop-opacity="0.96"/>
<stop offset="0.81" stop-color="#96BD34" stop-opacity="0.91"/>
<stop offset="0.91" stop-color="#BECF39" stop-opacity="0.84"/>
<stop offset="0.95" stop-color="#D5DA3C" stop-opacity="0.8"/>
</linearGradient>
<linearGradient id="paint6_linear_3_3856" x1="17.9938" y1="32.91" x2="34.4738" y2="9.56" gradientUnits="userSpaceOnUse">
<stop offset="0.11" stop-color="#0A8F3B"/>
<stop offset="0.2" stop-color="#10913B"/>
<stop offset="0.33" stop-color="#22973B"/>
<stop offset="0.47" stop-color="#3FA23B"/>
<stop offset="0.63" stop-color="#68B13B"/>
<stop offset="0.79" stop-color="#9CC43B"/>
<stop offset="0.95" stop-color="#D5DA3C"/>
</linearGradient>
<linearGradient id="paint7_linear_3_3856" x1="3.54382" y1="16.56" x2="34.6238" y2="16.56" gradientUnits="userSpaceOnUse">
<stop offset="0.17" stop-color="white" stop-opacity="0"/>
<stop offset="0.45" stop-color="#C3A5CC" stop-opacity="0.41"/>
<stop offset="0.77" stop-color="#844796" stop-opacity="0.83"/>
<stop offset="0.92" stop-color="#6C2382"/>
</linearGradient>
<linearGradient id="paint8_linear_3_3856" x1="18.8338" y1="39.84" x2="28.4138" y2="29.92" gradientUnits="userSpaceOnUse">
<stop stop-color="white" stop-opacity="0.7"/>
<stop offset="0.42" stop-color="white" stop-opacity="0.61"/>
<stop offset="1" stop-color="white" stop-opacity="0.5"/>
</linearGradient>
<linearGradient id="paint9_linear_3_3856" x1="14.5938" y1="29.56" x2="32.4838" y2="11.04" gradientUnits="userSpaceOnUse">
<stop offset="0.01" stop-color="#0A8F3B"/>
<stop offset="0.4" stop-color="#64A72F"/>
<stop offset="0.55" stop-color="#6AA931" stop-opacity="0.99"/>
<stop offset="0.69" stop-color="#7CB239" stop-opacity="0.96"/>
<stop offset="0.83" stop-color="#9BC145" stop-opacity="0.9"/>
<stop offset="0.96" stop-color="#C6D557" stop-opacity="0.82"/>
<stop offset="1" stop-color="#D4DC5D" stop-opacity="0.8"/>
</linearGradient>
</defs>
</svg>
